<?xml version="1.0" encoding="UTF-8"?>
<svg version="1.1" xmlns="http://www.w3.org/2000/svg" width="512" height="512">
<path d="M0 0 C0.72493652 0.20898926 1.44987305 0.41797852 2.19677734 0.63330078 C30.15104659 8.95413678 57.29742994 28.03559624 73.9375 52.125 C74.618125 53.07375 75.29875 54.0225 76 55 C76.66 55 77.32 55 78 55 C79.66538517 53.1582459 79.66538517 53.1582459 81.4375 50.75 C103.01536373 23.23434283 133.29243241 1.61086303 168.61328125 -3.49609375 C175.90303607 -4.31408128 183.2356012 -4.33097087 190.5625 -4.375 C191.60080963 -4.38691879 191.60080963 -4.38691879 192.66009521 -4.39907837 C203.09987217 -4.49100774 212.81570252 -3.26729929 223 -1 C223.81815186 -0.82259277 224.63630371 -0.64518555 225.47924805 -0.46240234 C250.13522139 5.25693795 271.0177586 18.66479578 289 36 C289.96486328 36.88751953 289.96486328 36.88751953 290.94921875 37.79296875 C316.19638481 61.62770594 331.74547471 100.59296814 333.16113281 134.90551758 C333.18103314 136.31845133 333.19474632 137.7314822 333.203125 139.14453125 C333.20882507 139.91319016 333.21452515 140.68184906 333.22039795 141.47380066 C333.22980054 143.09832406 333.23636295 144.72286612 333.24023438 146.34741211 C333.24982284 148.76778113 333.28084121 151.18725577 333.3125 153.60742188 C333.4080829 167.65792905 331.71519415 181.39841787 327.8125 194.9375 C327.60383301 195.66799561 327.39516602 196.39849121 327.18017578 197.15112305 C320.29836461 220.23048764 308.52643762 241.89541647 294 261 C293.5359375 261.61423828 293.071875 262.22847656 292.59375 262.86132812 C283.99874326 274.17890092 274.97826393 285.33700326 264.765625 295.23828125 C263.05383172 296.94628737 261.49701712 298.71549613 259.9375 300.5625 C252.41331274 309.30026586 244.02894143 317.62797708 235.21875 325.06640625 C231.89963354 327.95894612 228.70933118 330.98669718 225.5 334 C221.02078929 338.19990911 216.53143712 342.36695924 211.875 346.37109375 C209.61248819 348.33665089 207.40309317 350.35673309 205.1875 352.375 C201.72469918 355.50422827 198.19320997 358.50500349 194.5625 361.4375 C190.75912497 364.51336588 187.09917348 367.68753166 183.5 371 C179.0301488 375.11378909 174.40955107 378.97087297 169.68359375 382.78515625 C167.05291443 384.95632827 164.52057576 387.20241357 162 389.5 C157.70008209 393.41891252 153.24080453 397.09170869 148.71875 400.75 C145.22091849 403.64475711 141.88214596 406.69589539 138.52734375 409.75390625 C135.93037607 412.06187598 133.26595987 414.25555863 130.5625 416.4375 C126.75912497 419.51336588 123.09917348 422.68753166 119.5 426 C115.02259036 430.11437642 110.42956377 434.02625564 105.6875 437.83203125 C103.9157833 439.26125039 102.16488373 440.71672326 100.4375 442.19921875 C92.33275675 449.05025953 84.89592953 452.88130737 74.078125 452.4375 C64.75881567 451.11292812 58.14877239 446.81999967 51.4921875 440.38671875 C48.95156367 437.95361349 46.30836338 435.75996857 43.5625 433.5625 C38.79003797 429.70291397 34.26890891 425.62800009 29.75390625 421.47265625 C26.16792716 418.25290481 22.43298508 415.24094824 18.68359375 412.21484375 C16.05291443 410.04367173 13.52057576 407.79758643 11 405.5 C7.58260628 402.38541332 4.0947765 399.4081338 0.5 396.5 C-3.96276213 392.88967558 -8.22719533 389.11572071 -12.46875 385.25 C-15.0884481 382.92137947 -17.7751531 380.70437053 -20.5 378.5 C-24.96997492 374.88384051 -29.24131648 371.10407398 -33.48828125 367.23046875 C-35.99458744 365.00480649 -38.56924393 362.90478439 -41.1875 360.8125 C-47.25320218 355.90996514 -52.88164977 350.57741963 -58.5546875 345.23046875 C-61.68978279 342.2783524 -64.88971694 339.41654239 -68.1484375 336.6015625 C-83.7736702 323.08606586 -99.68484273 308.943445 -113.08203125 293.19140625 C-115.03190524 290.96354615 -117.0598973 288.8214062 -119.09985352 286.67626953 C-126.11592597 279.2525079 -132.35433979 271.36490848 -138.41064453 263.14550781 C-139.91895825 261.10940014 -141.45488275 259.09718483 -142.99609375 257.0859375 C-165.839741 226.68576159 -179.4214136 190.16733099 -179.31567383 152.12451172 C-179.31252156 149.76612684 -179.33605261 147.40901179 -179.36132812 145.05078125 C-179.40693033 134.10504209 -178.18252524 123.71892337 -176 113 C-175.80656006 112.04722168 -175.61312012 111.09444336 -175.41381836 110.11279297 C-174.92939769 107.91228874 -174.3958329 105.73868151 -173.8125 103.5625 C-173.6052832 102.78865967 -173.39806641 102.01481934 -173.18457031 101.2175293 C-165.98747729 75.62241549 -152.17913197 54.13004041 -134 35 C-133.14535156 34.04867187 -133.14535156 34.04867187 -132.2734375 33.078125 C-113.57447774 12.94078372 -85.51542012 1.77414948 -59 -3 C-58.09427246 -3.17128418 -57.18854492 -3.34256836 -56.25537109 -3.51904297 C-38.19332183 -6.18757732 -17.47134958 -5.15023971 0 0 Z M-118.5625 63.6875 C-143.6291837 92.3729655 -150.09761078 129.06170388 -148 166 C-147.32330538 172.84284714 -145.93784361 179.40926706 -144 186 C-143.78569336 186.7317041 -143.57138672 187.4634082 -143.35058594 188.21728516 C-136.39919915 211.10019813 -123.65550593 231.31931866 -109 250 C-107.83984375 251.48306641 -107.83984375 251.48306641 -106.65625 252.99609375 C-101.25105316 259.74279778 -95.42192303 266.05696057 -89.51855469 272.36376953 C-88.0204525 273.97796259 -86.54229732 275.60807697 -85.0703125 277.24609375 C-80.71642972 282.08457221 -76.36021767 286.70994183 -71.359375 290.89453125 C-67.93021959 293.95465503 -64.73167131 297.23364311 -61.5 300.5 C-57.0836753 304.95514479 -52.67945097 309.34384842 -47.88671875 313.3984375 C-45.54681895 315.38468785 -43.27601193 317.44091507 -41 319.5 C-37.37976277 322.76704335 -33.73016435 325.99520776 -30.05078125 329.1953125 C-27.73911203 331.22958141 -25.4646857 333.3022231 -23.1875 335.375 C-18.81714316 339.32371445 -14.29696921 343.0462721 -9.71875 346.75 C-6.22234218 349.64357889 -2.88491868 352.69349183 0.46875 355.75 C3.0884481 358.07862053 5.7751531 360.29562947 8.5 362.5 C12.96276213 366.11032442 17.22719533 369.88427929 21.46875 373.75 C24.0884481 376.07862053 26.7751531 378.29562947 29.5 380.5 C33.96420457 384.11149134 38.23002114 387.88660694 42.47265625 391.75390625 C45.06962393 394.06187598 47.73404013 396.25555863 50.4375 398.4375 C54.28824074 401.54959372 57.98478587 404.76909827 61.625 408.125 C66.69272459 412.75253756 66.69272459 412.75253756 71.875 417.25 C72.89207031 418.12398438 72.89207031 418.12398438 73.9296875 419.015625 C75.99657233 420.25553471 75.99657233 420.25553471 78.40625 419.48828125 C81.55145352 417.68357863 84.03995613 415.4439763 86.625 412.9375 C91.36985502 408.45730997 96.26618198 404.27422024 101.3515625 400.1796875 C103.97275119 398.02242601 106.49154281 395.78689 109 393.5 C113.29991791 389.58108748 117.75919547 385.90829131 122.28125 382.25 C124.92147729 380.06498431 127.4672972 377.80828609 130 375.5 C134.29991791 371.58108748 138.75919547 367.90829131 143.28125 364.25 C146.78050524 361.35406463 150.12062616 358.30170044 153.4765625 355.2421875 C156.05082358 352.95484096 158.69289489 350.78451729 161.375 348.625 C166.52254549 344.46036631 171.38352388 340.04694859 176.23828125 335.55078125 C180.73972945 331.39314946 185.35760154 327.38696117 190.0390625 323.43359375 C202.69360644 312.7268857 214.76404199 301.43907453 226.3515625 289.5859375 C228.242633 287.73949403 230.08793984 286.06561694 232.125 284.40234375 C234.49369154 282.42307025 236.41623636 280.54895363 238.375 278.1875 C240.76428041 275.37904759 243.22616624 272.7522438 245.875 270.1875 C249.72808192 266.37870637 253.14506919 262.31913733 256.52734375 258.08984375 C258.26909476 255.91334288 260.0264434 253.76460912 261.81640625 251.62890625 C273.63311076 237.40293293 283.37010476 221.84826696 291 205 C291.42104004 204.08105957 291.42104004 204.08105957 291.85058594 203.14355469 C296.38881548 193.07819988 299.00769126 182.82963012 301 172 C301.26478149 170.60648315 301.26478149 170.60648315 301.53491211 169.18481445 C306.45321233 135.50543056 298.57649596 100.07195535 279.125 72.1875 C263.23270895 51.45842472 244.10495707 37.3621575 219 30 C217.87078125 29.6596875 216.7415625 29.319375 215.578125 28.96875 C189.62601916 22.51062228 162.16466486 26.81049577 139.23828125 40.13671875 C131.80098534 44.65214888 125.22688214 49.91626458 119 56 C118.113125 56.86625 117.22625 57.7325 116.3125 58.625 C115.549375 59.40875 114.78625 60.1925 114 61 C113.49049805 61.4839624 112.98099609 61.9679248 112.45605469 62.46655273 C107.98654358 66.76177065 104.41545332 71.31961107 100.9375 76.4375 C88.60974544 94.3378532 88.60974544 94.3378532 83 96 C75.89721389 96.88283217 70.9065405 96.59496111 64.90966797 92.57373047 C61.72269589 89.94739168 59.67320057 86.78830681 57.5 83.3125 C56.56016295 81.879623 55.61744847 80.44862922 54.671875 79.01953125 C54.21876953 78.32939941 53.76566406 77.63926758 53.29882812 76.92822266 C50.47295599 72.73297113 47.25184604 68.86724916 44 65 C43.45214844 64.31808594 42.90429688 63.63617188 42.33984375 62.93359375 C37.5437345 57.13971236 31.92839449 52.59571726 26 48 C25.15695313 47.31808594 24.31390625 46.63617188 23.4453125 45.93359375 C-20.81349813 11.56238975 -82.22772081 25.21167663 -118.5625 63.6875 Z " fill="#000000" transform="translate(179,32)"/>
</svg>
